<svg xmlns="http://www.w3.org/2000/svg" viewBox="0 0 1100 520" role="img" aria-labelledby="title desc">
  <title id="title">PERNAS COMPLETO</title><desc id="desc">Volume total para membros inferiores.</desc>
  <defs>
    <linearGradient id="bg" x1="0" y1="0" x2="1" y2="1"><stop stop-color="#202732"/><stop offset=".6" stop-color="#11161d"/><stop offset="1" stop-color="#090c11"/></linearGradient>
    <radialGradient id="glow"><stop stop-color="#ff7a00" stop-opacity=".38"/><stop offset="1" stop-color="#ff7a00" stop-opacity="0"/></radialGradient>
    <pattern id="grid" width="42" height="42" patternUnits="userSpaceOnUse"><path d="M42 0H0V42" fill="none" stroke="#fff" stroke-opacity=".035"/></pattern>
  </defs>
  <rect width="1100" height="520" rx="36" fill="url(#bg)"/>
  <rect width="1100" height="520" rx="36" fill="url(#grid)"/>
  <circle cx="830" cy="225" r="240" fill="url(#glow)"/>
  <path d="M0 420C210 350 390 470 610 388s340-42 490-120V520H0z" fill="#ff7a00" fill-opacity=".045"/>
  <g transform="translate(62 80)">
    <text x="0" y="0" fill="#ffb14a" font-family="Inter,Arial" font-size="20" font-weight="800" letter-spacing="5">VOLUME • PUSH / PULL</text>
    <text x="0" y="88" fill="#f6f7f9" font-family="Sora,Arial" font-size="68" font-weight="800">PERNAS COMPLETO</text>
    <text x="0" y="137" fill="#9aa4b2" font-family="Inter,Arial" font-size="24">Volume total para membros inferiores.</text>
    <rect x="0" y="190" width="84" height="7" rx="4" fill="#ff7a00"/>
  </g>
  
          <g transform="translate(690 52)" fill="none" stroke-linecap="round">
            <circle cx="165" cy="54" r="35" stroke="#ff7a00" stroke-width="13"/>
            <path d="M165 90v115M88 132h154M113 205l-42 118M217 205l42 118" stroke="#f5f7fa" stroke-opacity=".22" stroke-width="13"/>
            <path d="M110 138l-55 70M220 138l55 70M117 205h96" stroke="#ff9d2e" stroke-width="13"/>
          </g>
</svg>